Coordinates
version=1
nRows=5
nColumns=40
inDegrees=yes

Units are S.I. units (second, meters, Newtons, ...)
Angles are in degrees.

endheader
time	pelvis_tilt	pelvis_list	pelvis_rotation	pelvis_tx	pelvis_ty	pelvis_tz	hip_flexion_r	hip_adduction_r	hip_rotation_r	knee_angle_r	knee_angle_r_beta	ankle_angle_r	subtalar_angle_r	mtp_angle_r	hip_flexion_l	hip_adduction_l	hip_rotation_l	knee_angle_l	knee_angle_l_beta	ankle_angle_l	subtalar_angle_l	mtp_angle_l	lumbar_extension	lumbar_bending	lumbar_rotation	arm_flex_r	arm_add_r	arm_rot_r	elbow_flex_r	pro_sup_r	wrist_flex_r	wrist_dev_r	arm_flex_l	arm_add_l	arm_rot_l	elbow_flex_l	pro_sup_l	wrist_flex_l	wrist_dev_l
     54.22000000	     -5.66580127	     -2.58288051	     -0.94433035	      0.79532299	      0.92779070	      0.43466566	     29.38906646	     -3.36635532	    -12.88690389	     18.91046606	     18.91046606	      4.08250031	     -1.55803855	      5.15730507	      5.62998956	     -2.51068238	    -11.65463299	     14.05361222	     14.05361222	     16.04283133	     -0.85907267	     -4.90995187	     -9.93284981	      4.27076275	      0.71401679	    -17.50758635	    -11.27211954	     -6.22106782	     25.66243977	     46.55644063	      0.00000000	      0.00000000	     24.25807401	    -19.33043838	    -16.28880865	     69.78455240	     47.69200421	      0.00000000	      0.00000000
     54.23357143	     -5.73172954	     -2.48851049	     -0.96776884	      0.79577442	      0.92648850	      0.43650095	     28.81984070	     -3.08770041	    -13.39461841	     17.07983052	     17.07983052	      3.99116870	     -0.90708729	      5.86029741	      5.19095313	     -2.51220230	    -11.57793699	     14.08207968	     14.08207968	     16.48495314	     -0.96299050	     -5.02167835	     -9.83084757	      4.10759016	      0.75076782	    -17.59784640	    -11.20324312	     -6.18921911	     25.67551265	     46.55074267	      0.00000000	      0.00000000	     24.19745222	    -19.19541866	    -16.24362614	     69.80324455	     47.69050589	      0.00000000	      0.00000000
     54.24714286	     -5.70663002	     -2.43930263	     -0.97698742	      0.79660690	      0.92529774	      0.43842435	     28.25403027	     -2.86615802	    -14.03384696	     15.96263927	     15.96263927	      3.98787327	     -0.25379448	      6.38556178	      4.57047699	     -2.55605527	    -11.50909261	     14.00919889	     14.00919889	     16.98496287	     -0.97625578	     -5.02851269	     -9.75413201	      4.01918158	      0.80202748	    -17.59344792	    -11.18938208	     -6.13054669	     25.69061948	     46.54352826	      0.00000000	      0.00000000	     23.98988710	    -18.92343206	    -16.17377277	     69.70988398	     47.68458533	      0.00000000	      0.00000000
     54.26071429	     -5.69770466	     -2.40408901	     -0.99747144	      0.79770122	      0.92405915	      0.44046413	     27.82681034	     -2.68431182	    -14.52816667	     15.49240045	     15.49240045	      3.93961298	      0.04528897	      6.55463656	      3.93128049	     -2.61609034	    -11.44032220	     13.90490157	     13.90490157	     17.51436730	     -0.99800091	     -4.92081890	     -9.59630387	      3.96370523	      0.87917230	    -17.39558174	    -11.17949873	     -6.04635977	     25.72255048	     46.53563603	      0.00000000	      0.00000000	     23.63719854	    -18.61080072	    -16.11050931	     69.45874030	     47.67512147	      0.00000000	      0.00000000
     54.27428571	     -5.76095340	     -2.36776289	     -1.01324869	      0.79891591	      0.92263926	      0.44261973	     27.61497261	     -2.55254719	    -14.79183841	     15.60703514	     15.60703514	      3.90903684	     -0.09523644	      6.51209378	      3.41937274	     -2.69321925	    -11.33141076	     13.89963139	     13.89963139	     18.04099180	     -1.06978915	     -5.02159374	     -9.35835844	      3.89377861	      1.02722101	    -17.06893962	    -11.12647176	     -6.01562185	     25.82321280	     46.53152648	      0.00000000	      0.00000000	     23.19838217	    -18.26224771	    -16.01650915	     69.26369673	     47.66199999	      0.00000000	      0.00000000
